HIERARCHY
ROOT joint_Root
{
	OFFSET 0.0 0.0 0.0
	CHANNELS 6 Xposition Yposition Zposition Zrotation Xrotation Yrotation 
	JOINT Hips
	{
		OFFSET -17.1583 93.1646 452.98
		CHANNELS 6 Xposition Yposition Zposition Zrotation Xrotation Yrotation 
		JOINT Spine
		{
			OFFSET 15.7357 0.0 0.0
			CHANNELS 6 Xposition Yposition Zposition Zrotation Xrotation Yrotation 
			JOINT Chest
			{
				OFFSET 8.98455 -0.406207 0.0
				CHANNELS 6 Xposition Yposition Zposition Zrotation Xrotation Yrotation 
				JOINT Neck
				{
					OFFSET 16.3773 0.0 0.0
					CHANNELS 6 Xposition Yposition Zposition Zrotation Xrotation Yrotation 
					JOINT Head
					{
						OFFSET 6.45672 0.0 0.0
						CHANNELS 6 Xposition Yposition Zposition Zrotation Xrotation Yrotation 
						End Site
						{
							OFFSET 0.0 0.0 0.0
						}
					}
				}
				JOINT Shoulder_L
				{
					OFFSET 12.9942 -0.242716 4.98039
					CHANNELS 6 Xposition Yposition Zposition Zrotation Xrotation Yrotation 
					JOINT UpperArm_L
					{
						OFFSET 5.34809 0.0 0.0
						CHANNELS 6 Xposition Yposition Zposition Zrotation Xrotation Yrotation 
						JOINT LowerArm_L
						{
							OFFSET 24.3286 1.87007e-05 0.0
							CHANNELS 6 Xposition Yposition Zposition Zrotation Xrotation Yrotation 
							JOINT Hand_L
							{
								OFFSET 22.2916 0.0 0.0
								CHANNELS 6 Xposition Yposition Zposition Zrotation Xrotation Yrotation 
								End Site
								{
									OFFSET 0.0 0.0 0.0
								}
							}
						}
					}
				}
				JOINT Shoulder_R
				{
					OFFSET 12.9945 -0.242716 -4.98039
					CHANNELS 6 Xposition Yposition Zposition Zrotation Xrotation Yrotation 
					JOINT UpperArm_R
					{
						OFFSET -5.34813 0.0 0.0
						CHANNELS 6 Xposition Yposition Zposition Zrotation Xrotation Yrotation 
						JOINT LowerArm_R
						{
							OFFSET -24.3289 0.000322201 0.0
							CHANNELS 6 Xposition Yposition Zposition Zrotation Xrotation Yrotation 
							JOINT Hand_R
							{
								OFFSET -22.2915 -0.000108084 0.0
								CHANNELS 6 Xposition Yposition Zposition Zrotation Xrotation Yrotation 
								End Site
								{
									OFFSET 0.0 0.0 0.0
								}
							}
						}
					}
				}
			}
		}
		JOINT UpperLeg_L
		{
			OFFSET -2.19248 -6.46944 0.0
			CHANNELS 6 Xposition Yposition Zposition Zrotation Xrotation Yrotation 
			JOINT LowerLeg_L
			{
				OFFSET 39.0811 0.0 -1.23785e-05
				CHANNELS 6 Xposition Yposition Zposition Zrotation Xrotation Yrotation 
				JOINT Foot_L
				{
					OFFSET 40.9854 0.0 -1.26872e-05
					CHANNELS 6 Xposition Yposition Zposition Zrotation Xrotation Yrotation 
					JOINT Toes_L
					{
						OFFSET 11.7543 0.0 0.0
						CHANNELS 6 Xposition Yposition Zposition Zrotation Xrotation Yrotation 
						End Site
						{
							OFFSET 0.0 0.0 0.0
						}
					}
				}
			}
		}
		JOINT UpperLeg_R
		{
			OFFSET -2.19251 6.46944 0.0
			CHANNELS 6 Xposition Yposition Zposition Zrotation Xrotation Yrotation 
			JOINT LowerLeg_R
			{
				OFFSET -39.0811 -0.00228153 -0.0401928
				CHANNELS 6 Xposition Yposition Zposition Zrotation Xrotation Yrotation 
				JOINT Foot_R
				{
					OFFSET -40.9854 0.0 0.0
					CHANNELS 6 Xposition Yposition Zposition Zrotation Xrotation Yrotation 
					JOINT Toes_R
					{
						OFFSET -11.7543 0.0 0.0
						CHANNELS 6 Xposition Yposition Zposition Zrotation Xrotation Yrotation 
						End Site
						{
							OFFSET 0.0 0.0 0.0
						}
					}
				}
			}
		}
	}
}
MOTION
Frames:	5
Frame Time:	0.0333333
0.000000 0.000000 0.000000 0.000000 0.000000 -0.000000 0.237782 92.882800 3.339660 86.730200 -4.347220 0.612635 15.735700 0.000005 -0.000001 80.304800 88.004500 -85.894400 8.984550 -0.406207 -0.000000 -3.812590 -0.107924 -11.187100 16.377300 -0.000001 -0.000001 2.495000 -0.061952 -8.053520 6.456720 -0.000001 -0.000000 -1.853850 4.163240 -26.048500 12.994200 -0.242716 4.980390 -92.342600 7.210940 -71.948500 5.348090 -0.000007 -0.000001 -60.664100 1.782810 3.897300 24.328600 0.000019 0.000005 13.913500 25.494400 -29.922100 22.291600 -0.000001 0.000005 2.721950 4.777650 11.736400 12.994500 -0.242716 -4.980390 95.464200 -9.737080 -60.507300 -5.348130 -0.000001 -0.000004 -43.217900 -63.522000 -82.800400 -24.328900 0.000322 -0.000009 -0.842532 -3.694580 -12.840400 -22.291500 -0.000108 -0.000004 49.868500 5.539750 -8.232200 -2.192480 -6.469440 -0.000000 -173.549000 -8.797310 1.744420 39.081100 -0.000007 -0.000012 0.046551 -0.166482 15.621900 40.985400 -0.000006 -0.000013 -0.075729 8.192000 -70.757000 11.754300 -0.000000 0.000003 -0.003239 0.210913 -8.018170 -2.192510 6.469440 -0.000001 176.490000 7.132510 -176.744000 -39.081100 -0.002282 -0.040193 -0.006668 0.056119 10.110000 -40.985400 0.000008 0.000006 -10.628200 11.368600 -65.073300 -11.754300 -0.000006 -0.000006 -0.010417 0.274392 -5.424720
0.000000 0.000000 0.000000 0.000000 0.000000 -0.000000 0.247861 92.877900 3.339000 86.744100 -4.371780 0.673266 15.735700 0.000005 -0.000001 80.269400 87.985000 -85.841000 8.984550 -0.406207 -0.000000 -3.775510 -0.120539 -11.151400 16.377300 -0.000001 -0.000001 2.531680 -0.049521 -8.024430 6.456720 -0.000001 -0.000000 -1.856630 4.239180 -26.047000 12.994200 -0.242716 4.980390 -92.347200 7.216500 -71.929000 5.348090 -0.000007 -0.000001 -60.696300 1.874420 3.896870 24.328600 0.000019 0.000005 13.848700 25.511100 -29.786700 22.291600 -0.000001 0.000005 2.527330 4.782240 11.650500 12.994500 -0.242716 -4.980390 95.452300 -9.720430 -60.519800 -5.348130 -0.000001 -0.000004 -43.144700 -63.393500 -82.682200 -24.328900 0.000322 -0.000009 -0.882970 -3.912390 -12.713700 -22.291500 -0.000108 -0.000004 49.982200 5.543200 -8.389190 -2.192480 -6.469440 -0.000000 -173.568000 -8.768060 1.774140 39.081100 -0.000007 -0.000012 0.046148 -0.164670 15.655300 40.985400 -0.000006 -0.000013 -0.065808 8.161730 -70.689600 11.754300 -0.000000 0.000003 -0.003046 0.208756 -8.105960 -2.192510 6.469440 -0.000001 176.462000 7.091660 -176.712000 -39.081100 -0.002282 -0.040193 -0.006747 0.056318 10.153400 -40.985400 0.000008 0.000006 -10.627100 11.347700 -65.071400 -11.754300 -0.000006 -0.000006 -0.010139 0.272341 -5.508620
0.000000 0.000000 0.000000 0.000000 0.000000 -0.000000 0.263720 92.885900 3.316060 86.742500 -4.378680 0.649916 15.735700 0.000005 -0.000001 80.162200 88.000200 -85.714900 8.984550 -0.406207 -0.000000 -3.806990 -0.123145 -11.113700 16.377300 -0.000001 -0.000001 2.600600 -0.032960 -8.055770 6.456720 -0.000001 -0.000000 -1.868870 4.218190 -25.996400 12.994200 -0.242716 4.980390 -92.347800 7.216630 -71.924500 5.348090 -0.000007 -0.000001 -60.747600 1.997590 3.947630 24.328600 0.000019 0.000005 13.831800 25.592700 -29.681900 22.291600 -0.000001 0.000005 2.525650 4.783670 11.623800 12.994500 -0.242716 -4.980390 95.435200 -9.688900 -60.518000 -5.348130 -0.000001 -0.000004 -43.150200 -63.279800 -82.583500 -24.328900 0.000322 -0.000009 -0.882671 -3.915580 -12.699600 -22.291500 -0.000108 -0.000004 49.762100 5.538020 -8.153820 -2.192480 -6.469440 -0.000000 -173.581000 -8.780930 1.779560 39.081100 -0.000007 -0.000012 0.047448 -0.169856 15.607500 40.985400 -0.000006 -0.000013 -0.062352 8.157190 -70.744700 11.754300 -0.000000 0.000003 -0.003095 0.209304 -8.083640 -2.192510 6.469440 -0.000001 176.471000 6.995350 -176.767000 -39.081100 -0.002282 -0.040193 -0.006559 0.055128 10.178400 -40.985400 0.000008 0.000006 -10.705700 11.276100 -65.079200 -11.754300 -0.000006 -0.000006 -0.010296 0.273501 -5.461170
0.000000 0.000000 0.000000 0.000000 0.000000 -0.000000 0.274111 92.880600 3.308350 86.768500 -4.389540 0.688180 15.735700 0.000005 -0.000001 80.161600 87.990100 -85.702900 8.984550 -0.406207 -0.000000 -3.787470 -0.128723 -11.091000 16.377300 -0.000001 -0.000001 2.617790 -0.042623 -8.074910 6.456720 -0.000001 -0.000000 -1.885100 4.204500 -25.968700 12.994200 -0.242716 4.980390 -92.368800 7.269400 -71.896600 5.348090 -0.000007 -0.000001 -60.748900 2.119200 3.982190 24.328600 0.000019 0.000005 13.723100 25.596100 -29.477100 22.291600 -0.000001 0.000005 2.361410 4.787860 11.545400 12.994500 -0.242716 -4.980390 95.412600 -9.644840 -60.510400 -5.348130 -0.000001 -0.000004 -43.018300 -63.204600 -82.343600 -24.328900 0.000322 -0.000009 -0.880472 -3.897370 -12.726200 -22.291500 -0.000108 -0.000004 49.432400 5.535700 -8.047370 -2.192480 -6.469440 -0.000000 -173.606000 -8.788530 1.771070 39.081100 -0.000007 -0.000012 0.047040 -0.167877 15.653400 40.985400 -0.000006 -0.000013 -0.052692 8.162410 -70.686200 11.754300 -0.000000 0.000003 -0.003115 0.209522 -8.074790 -2.192510 6.469440 -0.000001 176.451000 6.958030 -176.767000 -39.081100 -0.002282 -0.040193 -0.006593 0.055046 10.227200 -40.985400 0.000008 0.000006 -10.595300 11.197900 -65.118700 -11.754300 -0.000006 -0.000006 -0.010032 0.271540 -5.541370
0.000000 0.000000 0.000000 0.000000 0.000000 -0.000000 0.283660 92.876500 3.288920 86.781500 -4.383040 0.686070 15.735700 0.000005 -0.000001 79.845400 88.000100 -85.359100 8.984550 -0.406207 -0.000000 -3.812020 -0.148635 -11.036800 16.377300 -0.000001 -0.000001 2.746360 -0.058318 -8.172390 6.456720 -0.000001 -0.000000 -2.023480 4.200460 -25.932100 12.994200 -0.242716 4.980390 -92.396200 7.320420 -71.818900 5.348090 -0.000007 -0.000001 -60.809500 2.245830 3.994170 24.328600 0.000019 0.000005 13.643400 25.730300 -29.209600 22.291600 -0.000001 0.000005 2.437040 4.782170 11.652000 12.994500 -0.242716 -4.980390 95.366700 -9.560540 -60.507000 -5.348130 -0.000001 -0.000004 -43.379900 -63.135700 -82.622300 -24.328900 0.000322 -0.000009 -0.913052 -3.999740 -12.855800 -22.291500 -0.000108 -0.000004 48.970500 5.532390 -7.901470 -2.192480 -6.469440 -0.000000 -173.632000 -8.783170 1.737810 39.081100 -0.000007 -0.000012 0.047864 -0.170343 15.694900 40.985400 -0.000006 -0.000013 -0.036569 8.169190 -70.682500 11.754300 -0.000000 0.000003 -0.002797 0.205916 -8.221540 -2.192510 6.469440 -0.000001 176.444000 6.876670 -176.792000 -39.081100 -0.002282 -0.040193 -0.006485 0.054288 10.256400 -40.985400 0.000008 0.000006 -10.616600 11.140900 -65.180300 -11.754300 -0.000006 -0.000006 -0.010119 0.272190 -5.514800
